<?xml version="1.0" encoding="UTF-8" standalone="no"?>
<!DOCTYPE svg PUBLIC "-//W3C//DTD SVG 1.1//EN" "http://www.w3.org/Graphics/SVG/1.1/DTD/svg11.dtd">
<svg width="100%" height="100%" viewBox="0 0 1024 1024" version="1.1" xmlns="http://www.w3.org/2000/svg" xmlns:xlink="http://www.w3.org/1999/xlink" xml:space="preserve" style="fill-rule:evenodd;clip-rule:evenodd;stroke-linejoin:round;stroke-miterlimit:1.41421;">
    <g id="Shape" transform="matrix(21.0996,0,0,21.0996,-9.42103,50.4599)">
        <path d="M46.849,13.428L25.773,1.517C25.195,1.173 24.252,1.173 23.673,1.517L2.597,13.428C2.02,13.774 1.548,14.605 1.548,15.279L1.548,32.688C1.548,33.361 2.075,34.068 2.719,34.261L23.552,41.853C24.196,42.048 25.25,42.048 25.894,41.853L46.727,34.261C47.371,34.068 47.898,33.362 47.898,32.688L47.898,15.279C47.898,14.605 47.425,13.774 46.849,13.428Z" style="fill:white;"/>
    </g>
    <g id="Group" transform="matrix(21.0996,0,0,21.0996,-9.42103,50.4599)">
        <path id="Shape1" d="M19.62,27.204L19.069,28.931L20.678,28.931L20.142,27.204L19.62,27.204Z" style="fill:rgb(32,47,55);"/>
        <path id="Shape2" d="M21.19,19.651C21.285,19.546 21.307,19.385 21.307,19.002C21.307,18.617 21.285,18.458 21.19,18.352C21.126,18.287 21.009,18.266 20.699,18.266L19.031,18.266L19.031,19.737L20.7,19.737C21.009,19.737 21.126,19.716 21.19,19.651Z" style="fill:rgb(32,47,55);"/>
        <path id="Shape3" d="M29.762,11.798C29.762,11.733 29.722,11.709 29.665,11.709C29.608,11.709 29.534,11.743 29.494,11.767C28.949,12.14 28.404,12.637 28.029,13.093C28.094,13.191 28.183,13.199 28.224,13.199C28.688,13.199 29.762,12.051 29.762,11.798Z" style="fill:rgb(32,47,55);"/>
        <path id="Shape4" d="M28.504,18.329L27.429,18.329C27.109,18.329 27.004,18.352 26.939,18.415C26.864,18.49 26.81,18.724 26.81,20.354C26.81,21.995 26.864,22.219 26.939,22.294C27.004,22.359 27.11,22.38 27.429,22.38L28.504,22.38C28.824,22.38 28.929,22.359 28.995,22.294C29.069,22.219 29.123,21.985 29.123,20.354C29.123,18.724 29.069,18.49 28.995,18.415C28.929,18.352 28.823,18.329 28.504,18.329Z" style="fill:rgb(32,47,55);"/>
        <path id="Shape5" d="M28.573,26.938L26.903,26.938L26.903,28.409L28.573,28.409C28.882,28.409 28.999,28.386 29.062,28.322C29.158,28.218 29.181,28.057 29.181,27.673C29.181,27.29 29.158,27.129 29.062,27.022C29,26.959 28.882,26.938 28.573,26.938Z" style="fill:rgb(32,47,55);"/>
        <path id="Shape6" d="M36.843,26.959L35.085,26.959L35.106,31.094L36.843,31.094C37.324,31.094 37.505,31.061 37.611,30.956C37.729,30.837 37.771,30.519 37.771,29.027C37.771,27.524 37.729,27.216 37.611,27.097C37.504,26.991 37.324,26.959 36.843,26.959Z" style="fill:rgb(32,47,55);"/>
        <path id="Shape7" d="M47.879,13.046L25.822,0.581C25.217,0.22 24.23,0.22 23.625,0.581L1.567,13.046C0.963,13.408 0.469,14.278 0.469,14.983L0.469,33.203C0.469,33.908 1.02,34.647 1.695,34.849L23.497,42.795C24.172,42.998 25.275,42.998 25.949,42.795L47.752,34.849C48.426,34.647 48.978,33.908 48.978,33.203L48.978,14.983C48.978,14.279 48.482,13.408 47.879,13.046ZM18.458,8.396C19.298,8.034 20.562,8.185 22.173,8.185C25.966,8.185 29.66,7.955 29.824,7.955C29.929,7.955 29.954,7.859 30.686,8.445C30.792,8.534 31.077,8.705 31.077,8.836C31.077,8.934 30.735,9.007 30.524,9.031C29.929,9.101 29.179,9.164 28.438,9.218C27.874,9.375 27.446,9.716 27.101,10.043C25.994,11.095 25.222,11.642 25.015,11.903C25.544,11.643 25.853,11.449 26.277,11.449C26.53,11.449 27.002,11.709 27.002,12.043C27.002,12.141 26.969,12.181 26.83,12.303C26.44,12.638 25.194,13.613 25.194,14.029C25.194,14.112 25.243,14.142 25.301,14.142C25.463,14.142 25.968,13.808 26.44,13.442C26.714,13.231 26.997,12.83 27.08,12.703C27.313,12.354 27.632,12.032 27.964,11.733C28.614,11.147 29.111,10.887 29.421,10.887C29.592,10.887 29.819,11.058 30.024,11.286C30.316,11.555 30.34,11.694 30.34,11.798C30.34,12.581 28.998,13.688 28.388,13.688C28.217,13.688 27.972,13.59 27.793,13.402C27.639,13.637 27.548,13.842 27.548,13.988C27.548,14.118 27.615,14.29 27.867,14.29C28.013,14.29 28.191,14.239 28.29,14.209C29.779,13.662 30.56,12.937 30.635,12.937C30.699,12.937 30.706,12.988 30.706,13.019C30.706,13.108 30.381,13.483 30.047,13.785C29.453,14.329 28.648,14.9 27.851,14.9C27.503,14.9 26.77,14.114 26.727,13.77C26.232,14.226 25.406,14.825 25.024,14.825C24.561,14.825 24.324,14.256 24.324,13.85C24.324,13.337 24.952,12.735 25.504,12.189C24.87,12.458 24.154,13.069 23.022,14.452C22.956,14.525 22.818,14.85 22.728,14.85C22.574,14.85 22.036,14.418 22.036,14.118C22.036,14.077 22.061,14.004 22.109,13.931C23.123,12.45 25.244,10.492 26.541,9.327C26.212,9.342 25.921,9.35 25.713,9.35C25.461,9.35 24.721,9.952 24.166,10.489C23.515,11.123 21.872,12.727 20.805,14.112C20.17,14.932 20.251,15.193 20.129,15.193C19.803,15.193 19.241,14.224 19.241,14.037C19.241,13.524 20.715,12.108 21.456,11.391C22.701,10.188 23.417,9.561 23.564,9.447C23.629,9.399 23.76,9.308 23.76,9.308C22.036,9.006 20.209,8.479 19.114,8.783C17.736,9.164 17.012,12.127 19.007,11.412C19.85,11.11 20.62,10.452 21.081,9.881C21.26,9.658 21.374,9.769 21.181,10.071C20.561,11.041 19.607,11.963 17.761,12.027C16.008,12.087 16.347,9.308 18.458,8.396ZM31.424,20.354C31.424,22.412 31.18,23.254 30.741,23.679C30.455,23.968 30.134,24.085 29.356,24.085L26.576,24.085C25.799,24.085 25.479,23.968 25.192,23.679C24.753,23.254 24.51,22.412 24.51,20.354C24.51,18.297 24.753,17.456 25.192,17.031C25.48,16.742 25.799,16.625 26.576,16.625L29.356,16.625C30.134,16.625 30.455,16.742 30.741,17.031C31.18,17.456 31.424,18.297 31.424,20.354ZM16.058,22.422L16.845,22.422L16.845,18.287L16.058,18.287L16.058,16.624L21.83,16.624C22.469,16.624 22.885,16.732 23.172,17.017C23.504,17.348 23.609,17.764 23.609,18.691C23.609,20.015 23.258,20.333 22.395,20.503L23.524,22.422L24.238,22.422L24.238,24.084L21.934,24.084L20.283,21.271L19.031,21.271L19.031,22.422L19.84,22.422L19.84,24.084L16.058,24.084L16.058,22.422ZM8.988,22.422L10.998,22.422L10.998,18.287L8.988,18.287L8.988,16.624L15.457,16.624L15.457,18.287L13.449,18.287L13.449,22.422L15.457,22.422L15.457,24.084L8.988,24.084L8.988,22.422ZM14.919,32.756L11.05,32.756L11.05,31.094L11.892,31.094L11.892,29.934L9.728,26.959L8.989,26.959L8.989,25.296L12.861,25.296L12.861,26.938L12.212,26.938L13.032,28.218L13.074,28.218L13.96,26.938L13.309,26.938L13.309,25.296L17.04,25.296L17.04,26.959L16.283,26.959L14.076,29.901L14.076,31.094L14.919,31.094L14.919,32.756ZM39.296,32.169C38.849,32.617 38.272,32.756 37.196,32.756L33,32.756L32.118,32.756L29.808,32.756L28.156,29.942L26.903,29.942L26.903,31.094L27.714,31.094L27.714,32.756L24.238,32.756L23.93,32.756L20.582,32.756L20.582,31.126L21.265,31.126L21.083,30.486L18.664,30.486L18.493,31.126L19.175,31.126L19.175,32.756L15.457,32.756L15.457,31.094L16.309,31.094L18.285,25.264L21.641,25.264L23.609,31.094L24.719,31.094L24.719,26.959L23.931,26.959L23.931,25.296L29.704,25.296C30.342,25.296 30.759,25.403 31.047,25.691C31.377,26.022 31.483,26.436 31.483,27.365C31.483,28.685 31.131,29.007 30.268,29.177L31.398,31.094L32.9,31.094L32.9,26.959L32.112,26.959L32.112,25.297L37.196,25.297C38.272,25.297 38.849,25.435 39.296,25.883C39.806,26.395 40.074,27.163 40.074,29.028C40.074,30.891 39.806,31.659 39.296,32.169ZM40.458,18.287L39.688,18.287L39.688,24.084L37.234,24.084L34.607,19.833L34.607,22.422L35.394,22.422L35.405,24.084L31.847,24.084L31.847,22.422L32.635,22.422L32.635,18.286L31.847,18.286L31.847,16.624L35.238,16.624L37.718,20.439L37.718,18.286L36.983,18.286L36.983,16.623L40.458,16.623L40.458,18.287L40.458,18.287Z" style="fill:rgb(32,47,55);"/>
    </g>
</svg>
